<svg width="22" height="21" viewBox="0 0 22 21" fill="none" xmlns="http://www.w3.org/2000/svg">
<path d="M17.5085 13.0003C17.2236 13.2764 17.0927 13.6756 17.1576 14.0672L18.1354 19.4785C18.2179 19.9371 18.0243 20.4012 17.6405 20.6663C17.2643 20.9413 16.7639 20.9743 16.3536 20.7543L11.4824 18.2136C11.313 18.1234 11.1249 18.075 10.9324 18.0695H10.6344C10.531 18.0849 10.4298 18.1179 10.3374 18.1685L5.46505 20.7213C5.22418 20.8423 4.95142 20.8852 4.68415 20.8423C4.03304 20.7191 3.59859 20.0988 3.70528 19.4444L4.68415 14.0331C4.74904 13.6382 4.61816 13.2368 4.3333 12.9563L0.361716 9.10681C0.0295595 8.78455 -0.0859254 8.30062 0.0658548 7.86397C0.213236 7.42843 0.589386 7.11057 1.04363 7.03908L6.50991 6.24608C6.92566 6.20319 7.29081 5.95022 7.47779 5.57627L9.88647 0.637917C9.94366 0.527931 10.0174 0.426744 10.1064 0.340955L10.2054 0.263966C10.2571 0.206773 10.3165 0.159479 10.3825 0.120984L10.5024 0.0769899L10.6894 0H11.1524C11.566 0.0428944 11.93 0.290362 12.1203 0.659914L14.5609 5.57627C14.7368 5.93593 15.0789 6.18559 15.4737 6.24608L20.94 7.03908C21.402 7.10507 21.788 7.42403 21.9409 7.86397C22.085 8.30502 21.9607 8.78895 21.6219 9.10681L17.5085 13.0003Z" fill="#FF965B"/>
</svg>
